<svg xmlns="http://www.w3.org/2000/svg" width="1000" height="155.015" viewBox="0 0 1000 155.015"><path d="M121 85.529c-2.115 1.187-3.171 3.275-3.171 6.266v39.139c0 .105-.104.259-.31.465a33.656 33.656 0 0 1-8.122 4.486 49.729 49.729 0 0 1-9.127 2.554 74.134 74.134 0 0 1-9.437 1.082c-3.147.155-6.215.231-9.205.231-4.54 0-9.128-.155-13.769-.464-8.149-.619-15.497-2.68-22.045-6.188-6.551-3.505-12.121-8.068-16.708-13.691-4.59-5.62-8.122-12.015-10.597-19.184-2.475-7.167-3.713-14.721-3.713-22.664 0-9.179 1.649-17.301 4.95-24.366 3.3-7.063 7.813-12.996 13.537-17.791 5.725-4.795 12.401-8.404 20.034-10.83 7.631-2.422 15.78-3.635 24.444-3.635 4.641 0 9.306.258 14 .773 4.691.518 9.306 1.083 13.846 1.702 2.062.31 4.1.619 6.11.929 2.012.309 4.047.568 6.111.773.411 0 .619.208.619.619a124.875 124.875 0 0 1-1.083 10.907 3506.17 3506.17 0 0 0-1.546 10.752c-.104.723-.208 1.419-.31 2.088-.104.672-.208 1.315-.309 1.934 0 .31-.182.491-.542.542-.363.053-.595-.077-.697-.387-.826-4.433-2.32-8.25-4.486-11.448-2.167-3.196-4.823-5.852-7.967-7.967-3.147-2.113-6.679-3.66-10.597-4.642-3.921-.979-7.994-1.47-12.222-1.47-7.116 0-13.745 1.188-19.879 3.559-6.137 2.374-11.475 5.7-16.012 9.979-4.539 4.281-8.122 9.437-10.751 15.47-2.631 6.034-3.946 12.662-3.946 19.88 0 7.839 1.443 15.238 4.332 22.2 2.887 6.962 6.832 13.048 11.835 18.255 5.001 5.21 10.931 9.335 17.791 12.377 6.857 3.042 14.257 4.563 22.2 4.563 3.403 0 6.858-.387 10.365-1.161 3.505-.773 6.498-2.448 8.973-5.027V91.33c0-2.475-.773-4.15-2.32-5.027-1.547-.875-3.302-1.625-5.26-2.244a22.465 22.465 0 0 1-2.475-.774 13.685 13.685 0 0 1-2.476-1.237c-.309-.206-.413-.438-.309-.697.101-.255.309-.386.618-.386 6.188 0 12.299.053 18.333.155 6.034.104 12.144.31 18.333.619l.155 1.237c-2.685.517-5.083 1.368-7.195 2.553zm81.452 41.074a592.465 592.465 0 0 0-4.1-.309 38.999 38.999 0 0 0-2.552-.232 45.775 45.775 0 0 0-2.708-.078c-2.374 0-4.745.104-7.116.311-2.374.208-4.746.413-7.117.618-.31 0-.518-.155-.619-.464-.104-.31 0-.566.309-.773l6.034-2.939a398.157 398.157 0 0 0-5.492-14.311 333.009 333.009 0 0 1-5.492-14.465H149.62a609.532 609.532 0 0 0-2.243 5.956 212.031 212.031 0 0 0-2.862 8.199 221.588 221.588 0 0 0-2.475 8.045c-.723 2.528-1.083 4.357-1.083 5.492 0 1.546.669 2.553 2.011 3.016 1.339.465 2.63.801 3.868 1.007v1.237c-1.96-.205-3.971-.387-6.034-.542a83.124 83.124 0 0 0-12.376 0c-2.064.155-4.126.337-6.188.542-.309.104-.491-.05-.542-.464-.053-.411.077-.67.387-.773 5.671-.721 9.643-3.714 11.912-8.973v.154c2.99-7.527 5.879-15.057 8.664-22.587a1479.852 1479.852 0 0 0 8.2-22.742c1.856-5.156 3.66-10.288 5.414-15.393a506.704 506.704 0 0 1 5.569-15.393c.102-.309.31-.464.619-.464s.515.155.619.464a99.673 99.673 0 0 0 1.625 4.254 110.28 110.28 0 0 1 1.624 4.254 1523.18 1523.18 0 0 0 13.228 34.808 339.846 339.846 0 0 0 15.702 34.189c1.238 2.375 2.809 4.075 4.718 5.106 1.907 1.031 4.1 1.65 6.575 1.856v1.237c-1.447.21-2.812.261-4.1.157zm-40.765-69.926a1293.569 1293.569 0 0 0-5.027 16.012 425.898 425.898 0 0 1-5.337 16.167h19.957l-9.593-32.179zm156.508 70.08h-12.531c-4.126 0-8.199-.101-12.221-.309-.619 0-.827-.258-.619-.773.101-.206.179-.412.231-.619.051-.205.128-.411.232-.618l.928-2.785c.309-.929.464-1.804.464-2.631 0-5.878-.286-11.679-.852-17.403a686.658 686.658 0 0 0-1.934-17.249 714.24 714.24 0 0 0-1.16-9.36c-.363-2.731-.646-5.903-.851-9.514a761.71 761.71 0 0 0-11.293 22.586 2366.365 2366.365 0 0 0-10.829 22.896 934.926 934.926 0 0 0-3.636 7.657 974.263 974.263 0 0 1-3.635 7.659c-.104.208-.259.309-.464.309-.208 0-.414-.101-.619-.309-4.745-6.6-8.845-13.33-12.299-20.189a499.359 499.359 0 0 1-9.824-20.653 678.056 678.056 0 0 1-4.409-9.824 217.856 217.856 0 0 0-4.563-9.669c-.31 2.579-.619 5.081-.929 7.503-.31 2.425-.619 4.823-.928 7.193a628.059 628.059 0 0 0-2.166 19.029 195.504 195.504 0 0 0-.929 19.183c0 1.856.464 3.12 1.393 3.79.928.673 2.061 1.266 3.403 1.78.411.207.979.439 1.701.695.721.26 1.185.439 1.393.542.31.207.411.464.31.773-.104.309-.31.464-.619.464-1.445 0-2.862-.023-4.254-.077a123.024 123.024 0 0 1-4.255-.232 128.36 128.36 0 0 0-4.332-.232c-1.446-.05-2.889-.076-4.332-.076h-3.094c-.928 0-1.96.103-3.094.309-.31.104-.518-.051-.619-.464-.104-.411 0-.67.31-.773.824-.206 1.443-.31 1.857-.31a24.804 24.804 0 0 0 2.939-.696c.824-.257 1.598-.952 2.32-2.088.206-.311.488-1.648.851-4.023.36-2.371.773-5.387 1.238-9.05.464-3.659.979-7.812 1.546-12.453a961.06 961.06 0 0 0 1.625-14.233c.515-4.846 1.03-9.616 1.547-14.31.515-4.692.979-8.998 1.392-12.918.411-3.403.721-6.42.928-9.05.206-2.63.411-4.511.619-5.647 0-.31.128-.488.387-.542.257-.05.489.026.697.232 1.237 1.342 2.99 3.998 5.259 7.967 2.268 3.972 4.719 8.586 7.349 13.846s5.361 10.829 8.199 16.708a1788.232 1788.232 0 0 1 7.812 16.398c1.753 3.612 3.196 6.706 4.332 9.283 1.134 2.579 2.166 4.745 3.094 6.497 1.649-3.3 3.327-6.884 5.028-10.752 1.701-3.868 3.377-7.709 5.028-11.525a884.947 884.947 0 0 1 11.448-25.371c4.022-8.56 8.301-16.191 12.84-22.896.206-.206.411-.283.619-.233.206.054.31.233.31.542.206 1.237.387 2.966.542 5.183.155 2.219.387 4.771.696 7.658.31 3.817.696 7.994 1.16 12.531.464 4.539.953 9.181 1.47 13.923.515 4.745 1.03 9.36 1.547 13.846a333.023 333.023 0 0 0 1.624 12.299c.566 3.713 1.107 6.833 1.625 9.359.515 2.529 1.03 4.1 1.547 4.718 1.134 1.652 2.217 2.709 3.249 3.172 1.029.465 2.267.801 3.713 1.007.72.207 1.47.336 2.243.387.774.053 1.572.284 2.398.695l-.153 1.237zm49.609-7.812a750.27 750.27 0 0 0-.928 6.884c0 .31-.208.465-.619.465l-.154.154c-.827.309-1.496.464-2.011.464-2.374 0-4.771-.023-7.194-.077a335.497 335.497 0 0 0-7.193-.078c-2.064 0-4.075-.024-6.034-.076a227.707 227.707 0 0 0-6.034-.078 459.801 459.801 0 0 0-16.862.309v-1.237c1.547 0 2.808-.334 3.79-1.007a6.669 6.669 0 0 0 2.243-2.552c.515-1.03.851-2.191 1.006-3.481a33.2 33.2 0 0 0 .232-3.944V50.334c0-2.062-.491-3.403-1.47-4.022a16.526 16.526 0 0 0-3.171-1.547l-2.089-.697c-.773-.256-1.573-.643-2.397-1.16-.208-.206-.286-.438-.232-.696.05-.256.232-.387.541-.387h44.09a10.08 10.08 0 0 1 1.315-.542 9.787 9.787 0 0 0 1.315-.542c.515-.205.773 0 .773.619a92.095 92.095 0 0 1-1.16 7.503c-.464 2.32-.955 4.667-1.47 7.039-.104.31-.336.44-.696.387-.362-.051-.542-.232-.542-.542-.208-3.609-1.445-5.98-3.712-7.117-2.27-1.134-5.055-1.701-8.354-1.701h-12.222v31.714h17.945c.516 0 1.185-.154 2.012-.464.823-.31 1.648-.619 2.475-.928a15.771 15.771 0 0 1 3.404-1.393c.515-.205.773 0 .773.618-.104 1.238-.231 2.58-.387 4.023a69.26 69.26 0 0 1-.542 4.022 43.059 43.059 0 0 0-.464 3.868 45.004 45.004 0 0 1-.464 3.868c0 .309-.13.517-.386.619-.259.104-.491.053-.696-.155-.518-.515-.851-1.03-1.006-1.547a56.013 56.013 0 0 0-.542-1.702c-.208-.618-.414-1.237-.619-1.856-.208-.619-.568-1.185-1.083-1.701-.518-.515-1.47-.902-2.862-1.161a52.976 52.976 0 0 0-4.487-.618 48.89 48.89 0 0 0-4.718-.232h-8.2v31.869c1.547 2.271 3.737 3.998 6.575 5.183 2.835 1.187 5.593 1.779 8.276 1.779 3.61 0 6.677-.953 9.205-2.862 2.526-1.907 4.201-4.614 5.028-8.122l1.237.309a93.26 93.26 0 0 0-1.235 6.885zm94.334-46.43c-.06.178-.192.253-.4.222-.207-.028-.309-.133-.309-.31 0-1.954-.532-3.329-1.598-4.127-1.065-.798-2.544-1.199-4.437-1.199-.83 0-1.613.045-2.353.134-.74.088-1.524.192-2.352.31-.592.12-1.242.209-1.952.267-.71.06-1.362.089-1.953.089v17.395h11.98c.414 0 .888-.178 1.42-.533s.947-.71 1.243-1.064c.117-.118.251-.148.399-.09.148.061.222.178.222.356a80.157 80.157 0 0 1-1.242 9.496c-.06.177-.192.252-.399.221-.208-.028-.311-.133-.311-.31.058-1.953-.43-3.298-1.464-4.038-1.036-.739-2.501-1.109-4.394-1.109h-7.455v17.75c0 .708.147 1.449.444 2.219a6.5 6.5 0 0 0 1.243 2.041 6.256 6.256 0 0 0 1.863 1.42c.71.354 1.479.532 2.307.532v.71h-.621c-.652 0-1.273-.03-1.864-.088-.592-.058-1.214-.117-1.863-.178a51.421 51.421 0 0 0-1.864-.132c-.592-.03-1.184-.045-1.775-.045s-1.184.03-1.774.089l-1.775.177c-.71.06-1.407.104-2.085.132a43.86 43.86 0 0 1-1.996.045h-.533c-.178 0-.282-.103-.311-.311-.031-.207.044-.339.222-.399 1.064-.178 1.893-.399 2.484-.666.59-.266 1.021-.621 1.287-1.065.267-.443.414-1.004.445-1.687.028-.679.043-1.552.043-2.617V69.055c0-1.361-.267-2.204-.798-2.53a6.682 6.682 0 0 0-1.863-.753 21.547 21.547 0 0 0-1.109-.4 6.301 6.301 0 0 1-1.375-.666c-.177-.118-.238-.251-.177-.4.058-.146.177-.221.354-.221 3.728.177 7.483.266 11.271.266h6.301c.295 0 .606.015.932.045.324.03.665.044 1.021.044 1.359.06 2.765.06 4.214 0 1.45-.058 2.707-.384 3.772-.976.118-.119.25-.119.4 0 .146.119.191.266.132.444l-1.597 8.607z"/><path d="M946.346 28.839c-.109 3.633-.597 6.911-1.462 9.838-.109.325-.327.487-.651.487-.325 0-.543-.162-.651-.487-.544-2.709-1.382-4.904-2.521-6.586a12.649 12.649 0 0 0-4.309-3.984c-1.735-.975-3.687-1.651-5.854-2.033a39.872 39.872 0 0 0-6.831-.569H511.51v94.968c0 4.337 1.383 8.025 4.147 11.059 2.764 3.037 6.205 4.878 10.325 5.53.325.107.461.352.407.73-.056.38-.245.568-.569.568a398.864 398.864 0 0 0-11.465-.812 207.5 207.5 0 0 0-11.626-.325c-2.821 0-5.61.081-8.375.244-2.764.163-5.556.354-8.375.569-.325 0-.516-.188-.569-.569-.057-.378.082-.623.407-.731 2.602-.542 4.634-1.139 6.099-1.789 1.462-.651 2.545-1.516 3.252-2.603.704-1.082 1.139-2.464 1.301-4.146.163-1.681.245-3.823.245-6.424V25.667h-26.832c-3.472 0-6.534 1.219-9.189 3.659-2.657 2.439-4.635 5.178-5.935 8.212-.218.325-.463.462-.731.406-.272-.054-.407-.244-.407-.569-.218-1.083-.326-2.058-.326-2.927 0-2.167.27-4.281.813-6.342a213.203 213.203 0 0 1 2.766-9.513c.325-1.029.594-2.033.813-3.009.216-.65.541-.757.976-.325 2.277 1.41 4.497 2.305 6.667 2.684 2.168.38 4.66.569 7.48.569h463.457c.867 0 1.814-.135 2.846-.407 1.029-.27 1.977-.513 2.847-.731a45.505 45.505 0 0 1 1.87-.325c.702-.107 1.435-.217 2.194-.326.325 0 .488.219.488.651v1.3a358.056 358.056 0 0 1-.165 10.165z"/><path d="M611.156 127.222a286.935 286.935 0 0 0-16.244-.465c-1.96 0-3.894.026-5.801.078-1.91.054-3.895.13-5.957.231-.309 0-.49-.178-.541-.541-.054-.361.078-.592.388-.696 3.194-.929 5.259-2.166 6.187-3.713s1.394-3.97 1.394-7.271V82.667h-47.495v32.487c0 6.498 3.352 10.057 10.056 10.675.311 0 .465.208.465.619 0 .414-.154.618-.465.618h-4.796c-1.445 0-2.991.054-4.641.155-1.135 0-2.451.026-3.945.077-1.496.053-2.811.077-3.943.077h-3.868c-1.342 0-2.684-.051-4.022-.154-.413 0-.905-.024-1.47-.077a16.463 16.463 0 0 0-1.47-.078c-.311 0-.491-.178-.541-.541-.054-.361.077-.592.386-.696 1.648-.31 2.99-.643 4.022-1.005 1.03-.36 1.805-.875 2.32-1.548.516-.67.851-1.521 1.006-2.553.155-1.029.231-2.371.231-4.021V50.798c0-2.268-.903-3.969-2.707-5.105-1.805-1.133-3.738-1.752-5.801-1.856v-1.238c4.331.31 8.61.465 12.841.465 1.752 0 3.505-.024 5.26-.078 1.752-.05 3.505-.077 5.259-.077h3.25c.309 0 .464.208.464.619 0 .414-.155.619-.464.619-1.856 0-3.534.568-5.028 1.702-1.497 1.136-2.243 2.734-2.243 4.796v26.918h47.34v-26.3c0-2.476-.646-4.047-1.935-4.719-1.291-.669-2.861-1.262-4.718-1.779a30.315 30.315 0 0 1-1.161-.31 43.741 43.741 0 0 0-1.16-.31c-.31-.102-.439-.333-.386-.696.05-.36.23-.541.542-.541a231.023 231.023 0 0 0 20.652.386c2.113-.051 4.201-.128 6.266-.232.309 0 .488.181.542.541.051.363-.077.595-.387.697-2.27.413-4.076 1.005-5.415 1.778-1.342.774-2.011 2.451-2.011 5.028v63.429c0 3.508.773 6.137 2.319 7.89 1.549 1.755 4.074 2.939 7.582 3.558l-.157 1.239zm82.971 1.16a23.833 23.833 0 0 1-5.646.696c-3.094 0-5.879-.566-8.354-1.702-2.475-1.133-4.694-2.576-6.652-4.332-1.96-1.752-3.79-3.764-5.492-6.033a128.755 128.755 0 0 1-4.872-6.961 135.516 135.516 0 0 0-4.563-6.42 40.17 40.17 0 0 0-5.261-5.724 25.35 25.35 0 0 0-6.188-4.1c-2.218-1.03-4.718-1.547-7.503-1.547h-2.475c-.724 0-1.497.104-2.321.309v21.968c0 2.992.902 5.545 2.707 7.657 1.804 2.115 4.201 3.326 7.194 3.636v1.237a370.975 370.975 0 0 0-7.04-.541 105.53 105.53 0 0 0-7.037-.231 74.38 74.38 0 0 0-6.885.309c-2.22.208-4.514.464-6.885.773-.311.104-.542-.024-.696-.387-.154-.36-.077-.643.232-.851 2.165-1.03 3.969-2.576 5.415-4.641 1.442-2.062 2.165-4.279 2.165-6.653V53.119c0-2.372-.851-4.46-2.552-6.266-1.702-1.803-3.74-3.017-6.111-3.636-.31-.102-.44-.333-.387-.696.051-.36.232-.542.541-.542h30.477c3.196 0 6.344.387 9.438 1.16 3.093.774 5.825 1.988 8.199 3.636 2.371 1.651 4.278 3.816 5.724 6.497 1.443 2.683 2.165 5.879 2.165 9.592 0 4.95-1.367 9.645-4.099 14.077-2.734 4.436-5.802 8.253-9.205 11.449 1.134 1.237 2.371 2.811 3.714 4.718a226.737 226.737 0 0 0 4.33 5.957 408.475 408.475 0 0 0 7.195 9.514c2.525 3.249 5.182 6.188 7.967 8.818 2.784 2.631 5.67 4.695 8.663 6.188 2.99 1.496 6.034 2.038 9.127 1.625l.465 1.237a28.766 28.766 0 0 1-5.494 1.935zm-34.809-67.838c-.771-2.681-1.933-5.105-3.479-7.271a19.511 19.511 0 0 0-5.724-5.337c-2.27-1.392-4.9-2.088-7.891-2.088-1.237 0-2.475.078-3.713.232a12.247 12.247 0 0 0-3.559 1.006v38.521c1.753.31 3.455.517 5.105.618 1.648.104 3.352.155 5.105.155 5.775 0 9.77-1.571 11.989-4.719 2.217-3.145 3.326-7.503 3.326-13.073a28.785 28.785 0 0 0-1.159-8.044zm113.384 43.24c-2.425 5.106-5.647 9.514-9.67 13.227s-8.689 6.602-13.999 8.664c-5.314 2.064-10.907 3.094-16.786 3.094-4.85 0-9.877-1.185-15.084-3.558a57.7 57.7 0 0 1-14.31-9.283c-4.332-3.814-7.916-8.146-10.753-12.995-2.837-4.847-4.254-9.746-4.254-14.697 0-7.527.696-14.001 2.089-19.416s3.635-10.002 6.729-13.769c3.096-3.764 7.167-6.858 12.222-9.282 5.052-2.422 11.241-4.409 18.565-5.957l2.011-.155c6.6-.515 12.737.44 18.41 2.862 5.671 2.424 10.621 5.828 14.852 10.21 4.228 4.385 7.554 9.567 9.979 15.547 2.421 5.983 3.635 12.274 3.635 18.874-.001 5.986-1.215 11.529-3.636 16.634zm-41.994-59.012a38.642 38.642 0 0 0-3.854.255l-.001 78.102c1.246.268 2.53.456 3.854.567l.001-78.924zm9.217 78.517c2.754-.488 5.301-1.317 7.639-2.487 4.021-2.012 7.397-4.692 10.132-8.046 2.731-3.35 4.796-7.243 6.189-11.679 1.391-4.434 2.086-9.127 2.086-14.078 0-5.052-.748-10.106-2.241-15.161-1.496-5.052-3.714-9.591-6.652-13.614a34.989 34.989 0 0 0-10.83-9.747 26.63 26.63 0 0 0-6.323-2.632v77.444zm-2.682-78.042a32.05 32.05 0 0 0-3.854-.433v79.003h.25c1.236 0 2.438-.055 3.605-.166l-.001-78.404zm-13.049.2c-2.396.478-4.638 1.203-6.723 2.179-4.074 1.91-7.503 4.54-10.287 7.891-2.785 3.353-4.926 7.22-6.421 11.602-1.496 4.385-2.242 9.051-2.242 14.001 0 5.158.773 10.264 2.32 15.315 1.547 5.054 3.841 9.618 6.885 13.691 3.041 4.076 6.729 7.375 11.061 9.902a26.804 26.804 0 0 0 5.409 2.398l-.002-76.979zm143.916-1.688c-.052-.051-.181-.024-.386.078a52.883 52.883 0 0 0-4.564 1.547c-1.6.619-2.397 1.702-2.397 3.249l.155 37.284v6.343c0 5.982-.104 11.888-.311 17.713a341.332 341.332 0 0 1-1.082 17.559c0 .208-.131.387-.388.541-.258.154-.489.13-.695-.077a276.483 276.483 0 0 1-14.852-13.691 571.184 571.184 0 0 1-14.62-15.006 797.336 797.336 0 0 1-14.155-15.47A965.635 965.635 0 0 1 801.51 68.59a87.488 87.488 0 0 1-3.867-4.409 88.618 88.618 0 0 0-3.868-4.409 73.025 73.025 0 0 0-.464 8.045c0 3.92.051 7.839.155 11.757.102 3.92.256 7.839.464 11.757.206 3.921.36 7.839.464 11.757.103 3.921.155 7.89.155 11.913 0 1.755.155 3.171.464 4.254.311 1.083.696 1.934 1.16 2.553s1.03 1.058 1.702 1.315c.669.259 1.365.44 2.088.541.825.208 1.649.439 2.477.696.823.259 1.802.8 2.938 1.624.206.207.282.439.232.697-.053.258-.232.386-.543.386a329.57 329.57 0 0 1-3.016-.31c-.981-.101-1.986-.205-3.018-.309a62.57 62.57 0 0 0-8.818-.619c-1.855 0-3.764.131-5.724.387-1.96.259-3.92.541-5.879.851-.309.104-.54 0-.695-.31-.155-.309-.13-.566.077-.773.824-.721 1.572-1.289 2.244-1.701a25.87 25.87 0 0 1 1.933-1.084c1.237-.618 2.345-1.47 3.327-2.552.979-1.083 1.469-2.809 1.469-5.183V43.063l1.238-2.476c.102-.206.256-.36.464-.464.206-.102.36-.051.464.154a2758.486 2758.486 0 0 1 32.644 34.421 2560.55 2560.55 0 0 1 32.022 35.041v-.464c0-4.743-.026-9.437-.077-14.078-.053-4.641-.13-9.384-.232-14.232a4324.83 4324.83 0 0 1-.309-14.156 682.06 682.06 0 0 1-.154-14.155c0-1.752-.183-3.171-.543-4.254-.361-1.083-.851-1.908-1.47-2.476-.618-.566-1.291-.952-2.011-1.16a16.486 16.486 0 0 0-2.166-.464 22.27 22.27 0 0 1-2.243-.387 3.623 3.623 0 0 1-1.779-1.005c-.207-.206-.231-.464-.076-.774.155-.309.334-.411.542-.309 2.371.309 4.586.464 6.65.464h6.498c1.341 0 2.707-.024 4.101-.077a39.986 39.986 0 0 1 4.254.077c.516 0 1.083.027 1.701.078.619.053 1.186.077 1.702.077l.31 1.238c-.207.103-.335.13-.387.077zm58.574 75.186a750.27 750.27 0 0 0-.928 6.884c0 .31-.209.465-.619.465l-.155.154c-.826.309-1.496.464-2.011.464-2.373 0-4.771-.023-7.194-.077a335.497 335.497 0 0 0-7.193-.078c-2.064 0-4.076-.024-6.033-.076-1.96-.052-3.971-.078-6.033-.078a459.91 459.91 0 0 0-16.863.309v-1.237c1.546 0 2.808-.334 3.79-1.007a6.666 6.666 0 0 0 2.242-2.552c.516-1.03.851-2.191 1.006-3.481.155-1.288.231-2.603.231-3.944V50.334c0-2.062-.489-3.403-1.47-4.022s-2.036-1.134-3.171-1.547l-2.088-.697c-.773-.256-1.574-.643-2.397-1.16-.208-.206-.286-.438-.232-.696.051-.256.232-.387.541-.387h44.091c.41-.206.852-.387 1.314-.542a9.733 9.733 0 0 0 1.315-.542c.516-.205.774 0 .774.619a93.856 93.856 0 0 1-1.161 7.503c-.464 2.32-.955 4.667-1.47 7.039-.104.31-.336.44-.696.387-.362-.051-.542-.232-.542-.542-.207-3.609-1.445-5.98-3.712-7.117-2.271-1.134-5.056-1.701-8.354-1.701h-12.221v31.714h17.944c.515 0 1.186-.154 2.012-.464.825-.31 1.647-.619 2.475-.928a15.792 15.792 0 0 1 3.404-1.393c.514-.205.772 0 .772.618-.103 1.238-.232 2.58-.386 4.023a70.137 70.137 0 0 1-.542 4.022 42.704 42.704 0 0 0-.463 3.868 45.398 45.398 0 0 1-.465 3.868c0 .309-.13.517-.387.619-.258.104-.491.053-.697-.155-.516-.515-.85-1.03-1.004-1.547a70.122 70.122 0 0 0-.542-1.702c-.209-.618-.413-1.237-.619-1.856-.208-.619-.568-1.185-1.083-1.701-.518-.515-1.469-.902-2.862-1.161a52.981 52.981 0 0 0-4.485-.618 48.946 48.946 0 0 0-4.72-.232h-8.2v31.869c1.548 2.271 3.738 3.998 6.575 5.183 2.836 1.187 5.594 1.779 8.276 1.779 3.609 0 6.678-.953 9.205-2.862 2.526-1.907 4.201-4.614 5.028-8.122l1.237.309a93.242 93.242 0 0 0-1.234 6.885zm57.064-4.564c-1.908 2.992-4.33 5.544-7.27 7.659-2.939 2.114-6.188 3.766-9.747 4.949-3.559 1.188-6.938 1.779-10.133 1.779-1.548 0-3.172-.179-4.872-.542-1.703-.36-3.25-.951-4.643-1.778-1.393-.824-2.529-1.881-3.404-3.172-.876-1.289-1.314-2.912-1.314-4.873 0-1.238.13-2.476.387-3.713s.489-2.422.697-3.559l.772-3.712c0-.31.206-.465.619-.465.412 0 .62.155.62.465v2.32c0 2.166.463 4.076 1.391 5.724a14.844 14.844 0 0 0 3.559 4.254c1.443 1.188 3.119 2.064 5.027 2.631 1.907.567 3.842.85 5.803.85 1.856 0 3.763-.309 5.724-.927a18.013 18.013 0 0 0 5.338-2.708 15.077 15.077 0 0 0 3.944-4.331c1.028-1.702 1.547-3.583 1.547-5.647 0-1.958-.464-3.892-1.393-5.801-.928-1.907-2.166-3.841-3.713-5.801a68.029 68.029 0 0 0-5.261-5.879 339.093 339.093 0 0 0-6.032-5.879 724.981 724.981 0 0 1-6.498-6.265c-2.166-2.113-4.076-4.279-5.725-6.498-1.65-2.216-2.991-4.46-4.022-6.73-1.031-2.267-1.546-4.587-1.546-6.961 0-3.504.979-6.521 2.939-9.05 1.958-2.526 4.383-4.588 7.271-6.188 2.885-1.597 6.032-2.785 9.437-3.558 3.403-.774 6.548-1.161 9.437-1.161 4.124 0 7.891.517 11.293 1.547.31.208.466.413.466.618a222.446 222.446 0 0 1-1.857 15.625c-.104.309-.311.465-.619.465-.31 0-.517-.156-.619-.465-.826-3.609-2.398-6.703-4.719-9.282-2.319-2.577-5.39-3.868-9.205-3.868-3.92 0-7.193 1.264-9.822 3.79-2.63 2.529-3.945 5.75-3.945 9.668 0 2.065.438 3.972 1.315 5.725.874 1.755 2.011 3.457 3.402 5.105 1.394 1.651 3.018 3.275 4.874 4.873a585.773 585.773 0 0 0 5.725 4.874 160.66 160.66 0 0 1 6.42 5.492 47.757 47.757 0 0 1 5.646 6.034 31.12 31.12 0 0 1 4.023 6.729c1.028 2.374 1.547 4.95 1.547 7.735-.001 3.612-.956 6.912-2.864 9.902zM432.162 99.897c-1.377 2.901-3.208 5.407-5.496 7.518-2.286 2.11-4.938 3.75-7.957 4.923-3.021 1.173-6.199 1.759-9.541 1.759-2.755 0-5.614-.673-8.572-2.022a32.773 32.773 0 0 1-8.133-5.276 29.913 29.913 0 0 1-6.111-7.385c-1.612-2.755-2.418-5.54-2.418-8.353 0-4.279.396-7.959 1.188-11.037.792-3.077 2.066-5.684 3.824-7.824 1.76-2.14 4.074-3.898 6.947-5.275 2.871-1.377 6.388-2.506 10.551-3.386l1.144-.088c3.75-.292 7.239.25 10.463 1.626a25.585 25.585 0 0 1 8.44 5.804c2.403 2.493 4.293 5.438 5.671 8.837 1.376 3.399 2.066 6.975 2.066 10.726.001 3.402-.689 6.552-2.066 9.453zm-23.867-33.54c-.751.013-1.481.062-2.19.146v44.389c.708.152 1.439.259 2.189.323l.001-44.858zm5.238 44.626a15.78 15.78 0 0 0 4.342-1.413c2.286-1.145 4.205-2.667 5.758-4.573 1.553-1.904 2.727-4.117 3.519-6.638.791-2.521 1.186-5.188 1.186-8.003 0-2.871-.425-5.743-1.275-8.615-.85-2.872-2.11-5.452-3.78-7.738a19.881 19.881 0 0 0-6.155-5.54 15.205 15.205 0 0 0-3.595-1.496v44.016zm-1.524-44.356a18.569 18.569 0 0 0-2.189-.246v44.902h.141c.703 0 1.386-.031 2.049-.095l-.001-44.561zm-7.416.115a16.658 16.658 0 0 0-3.82 1.238c-2.316 1.086-4.264 2.581-5.847 4.485-1.583 1.905-2.8 4.103-3.649 6.593-.851 2.492-1.275 5.144-1.275 7.958 0 2.932.44 5.832 1.32 8.704.878 2.873 2.183 5.466 3.912 7.781a20.922 20.922 0 0 0 6.287 5.628 15.19 15.19 0 0 0 3.074 1.364l-.002-43.751z"/></svg>